<?xml version="1.0" encoding="UTF-8"?>
<!DOCTYPE svg PUBLIC "-//W3C//DTD SVG 1.1//EN" "http://www.w3.org/Graphics/SVG/1.1/DTD/svg11.dtd">
<!-- Creator: CorelDRAW 2017 -->
<?xml-stylesheet href="logo92x92.css" type="text/css"?>
<svg xmlns="http://www.w3.org/2000/svg" xml:space="preserve" width="32.4554mm" height="32.4554mm" version="1.1" style="shape-rendering:geometricPrecision; text-rendering:geometricPrecision; image-rendering:optimizeQuality; fill-rule:evenodd; clip-rule:evenodd"
viewBox="0 0 3246 3246"
 xmlns:xlink="http://www.w3.org/1999/xlink">
 <defs>
   <clipPath id="id0">
    <path d="M1622 792c465,0 841,374 841,836 0,462 -377,836 -841,836 -465,0 -841,-374 -841,-836 0,-462 377,-836 841,-836z"/>
   </clipPath>
     <clipPath id="id1">
      <path d="M1290 859l663 0c61,26 119,59 171,98l-1 1342c-44,33 -92,61 -142,85l-718 0c-51,-24 -99,-52 -143,-85l1 -1343c52,-38 109,-71 169,-97z"/>
     </clipPath>
     <clipPath id="id2">
      <path d="M1622 792c465,0 841,374 841,836 0,462 -377,836 -841,836 -465,0 -841,-374 -841,-836 0,-462 377,-836 841,-836z"/>
     </clipPath>
 <radialGradient id="id3" gradientUnits="userSpaceOnUse" gradientTransform="matrix(-1.72319E-16 1.07156 -1.07156 -1.72319E-16 3366 -110)" cx="1622" cy="1628" r="841" fx="1622" fy="1628">
  <stop offset="0" style="stop-opacity:1; stop-color:#FFED00"/>
  <stop offset="0.741176" style="stop-opacity:1; stop-color:#F7A707"/>
  <stop offset="1" style="stop-opacity:1; stop-color:#EF7F1A"/>
 </radialGradient>
 </defs>
 <g id="Layer_x0020_1">
  <metadata id="CorelCorpID_0Corel-Layer"/>
  <path class="fil0" d="M2956 1714c-33,399 -178,641 -438,903 -228,230 -651,369 -992,341 -278,-23 -512,-117 -721,-275 -72,-55 -112,-99 -176,-164 -97,-98 -199,-275 -253,-411 -66,-165 -102,-379 -87,-582 54,-703 663,-1297 1431,-1237 187,15 372,69 517,147 88,47 225,136 292,206 29,30 55,56 87,87 19,18 53,64 74,92 185,248 291,572 265,894zm-1869 -1380c-115,-62 -225,16 -301,66 -152,100 -91,78 -304,80 14,67 40,94 6,166 -22,46 -57,92 -81,130l-70 310c-16,23 -129,-10 -178,258 -36,199 -20,156 -159,278 126,74 121,69 160,278 33,175 46,158 178,258 -69,111 16,234 66,306 103,150 82,100 79,300 71,-12 106,-33 173,-1 45,21 85,52 125,79l306 69c13,21 14,44 36,72 13,18 36,35 57,49 47,30 105,43 165,55 203,41 147,9 279,157 87,-93 -10,-102 279,-157 62,-12 116,-25 165,-55 62,-37 62,-60 91,-125 96,71 237,-16 303,-63 144,-101 97,-79 302,-81 -14,-65 -38,-95 -5,-165 22,-45 56,-92 82,-130l67 -309c23,-15 46,-13 72,-35 17,-14 39,-39 53,-61 56,-89 71,-306 96,-342l117 -100c-80,-81 -105,13 -159,-278 -12,-64 -44,-188 -101,-223l-76 -36c66,-114 -14,-230 -65,-306 -103,-153 -83,-93 -79,-301 -74,14 -103,37 -179,0 -42,-21 -94,-58 -129,-82l-301 -61c-26,-120 -127,-155 -253,-179 -200,-38 -151,-15 -279,-158 -80,99 -5,106 -273,157 -60,11 -120,24 -166,52 -33,20 -63,47 -79,80l-18 45z"/>
  <path class="fil1" d="M1872 1611c1,-2 3,-5 3,-4 0,1 2,-3 3,-4 18,-31 -3,9 5,-9 16,-34 -14,-6 34,-48l3 47c18,10 7,1 18,5 3,1 -6,-9 21,13 -7,14 1,10 -39,18 4,93 -6,66 34,121 -97,3 -44,-77 -72,-126l-9 -13zm-118 0l96 4c-13,24 12,8 -70,13l73 54c13,75 -38,76 -98,67 4,51 10,109 -20,136 -76,68 -141,70 -219,3 -34,-29 -28,-82 -23,-139l-69 -125 -57 -1c-10,77 -1,74 33,120 -28,15 -55,-4 -62,-33 -4,-18 -2,-33 -2,-52 0,-18 0,-21 -9,-36l-9 -12 11 -17c16,-34 -13,-6 34,-49l5 52 55 0 32 -51 4 52 34 1 -1 -447 -329 -2 94 574c21,2 13,-38 12,-57 -1,-23 -2,-48 3,-71l26 1 -1 146 -36 6c6,39 35,253 51,278 36,1 43,-41 89,-16 25,14 34,37 59,62 217,217 363,-55 386,-60l93 13c16,-25 126,-750 145,-877l-326 4 -2 458z"/>
  <path class="fil2" d="M1508 350c195,-20 393,13 559,74 854,313 1145,1439 436,2125 -205,198 -460,319 -763,348 -744,71 -1327,-493 -1390,-1154 -27,-284 41,-544 177,-777 203,-347 564,-572 981,-615zm1448 1364c27,-322 -80,-646 -265,-894 -21,-28 -55,-74 -74,-92 -33,-31 -59,-56 -87,-87 -67,-71 -205,-159 -292,-206 -145,-78 -330,-132 -517,-147 -768,-60 -1376,534 -1431,1237 -16,203 21,417 87,582 54,136 156,313 253,411 64,65 104,109 176,164 208,159 442,252 721,275 340,28 763,-111 992,-341 260,-261 404,-504 438,-903z"/>
  <path class="fil3" d="M1492 375c728,-79 1311,467 1380,1113 41,387 -104,735 -294,951 -597,677 -1624,548 -2054,-208 -236,-414 -202,-947 77,-1338 185,-260 488,-474 892,-518zm13 -48c-425,44 -791,273 -998,626 -139,237 -208,502 -180,791 65,673 658,1247 1415,1175 308,-30 567,-152 776,-354 722,-697 425,-1844 -444,-2162 -169,-62 -371,-96 -569,-76z"/>
  <path class="fil1" d="M1545 2286c9,37 52,66 101,53 37,-10 68,-48 54,-100 -26,-99 -184,-64 -155,47z"/>
  <path class="fil1" d="M1493 1722l-1 -97 -35 -1c-2,20 -4,45 -2,65 3,27 10,30 38,32z"/>
  <path class="fil1" d="M1756 1720c34,6 47,13 69,-6l-71 -43 2 49z"/>
  <path class="fil4" d="M489 1447l-36 184 -25 -7 36 -184 25 7zm57 19c1,20 4,37 10,49 26,7 38,20 35,37 -1,6 -5,13 -11,20 -6,7 -12,9 -18,8 -8,-2 -16,-10 -22,-24l-10 -22c-9,3 -14,9 -16,18 -3,15 1,31 13,46 12,16 25,25 39,29 15,3 28,1 41,-7 12,-8 20,-21 23,-37 4,-20 -1,-37 -14,-49 8,-3 17,-3 29,-1 7,1 12,7 15,18 2,8 2,17 0,26 -5,26 -19,46 -41,58 -21,12 -44,16 -69,10 -19,-4 -35,-16 -50,-35 -15,-21 -21,-41 -18,-60 3,-16 17,-27 41,-32 -5,-19 -8,-40 -10,-61l33 10zm-26 -109l-12 43 130 54c17,7 33,1 50,-16 -6,18 -15,32 -28,41 -13,9 -24,12 -33,8l-127 -52 -7 26 -24 -10 29 -104 24 10zm35 -88l-16 42 124 68c16,9 33,5 51,-10 -7,17 -18,30 -32,37 -14,7 -25,9 -34,4l-122 -66 -10 25 -23 -12 39 -100 23 12zm-46 57c-3,8 -12,14 -28,20l-42 16c3,9 3,17 0,23 -3,8 -10,15 -22,20 -11,6 -21,6 -29,3 -6,-3 -10,-8 -12,-15 -2,-7 -1,-15 1,-21 3,-7 17,-15 43,-25l53 -20c15,-6 26,-14 31,-25 7,6 9,15 5,26zm-102 52c-2,6 -2,10 1,11 2,1 5,1 7,-1 3,-2 4,-4 5,-6 1,-3 1,-8 0,-14 -7,2 -12,5 -13,10zm370 -161l3 -3c4,3 5,6 2,11 -4,7 -13,12 -26,13 -13,2 -23,0 -30,-4l-11 -8c5,23 1,47 -12,70 -9,17 -23,26 -41,29 -17,2 -33,-2 -48,-13 -16,-11 -26,-28 -27,-49 -2,-20 3,-40 13,-58 11,-20 28,-30 50,-32l-34 -27 -73 127 -21 -16 166 -290 21 16 -75 132 35 28c-6,-27 -2,-51 9,-73 9,-16 23,-25 41,-27 17,-2 33,2 48,13 17,11 28,27 31,48 4,21 1,41 -10,59 -7,13 -16,20 -27,21 -7,-2 -19,-4 -34,-8 -4,-2 -5,-6 -3,-11 2,-3 5,-4 10,-4 10,-2 19,-8 25,-18 7,-12 9,-25 7,-39 -3,-14 -10,-25 -21,-33 -15,-10 -27,-7 -37,10 -8,13 -11,30 -9,49 1,18 6,34 14,48l30 24c10,8 19,11 27,11 2,0 4,0 6,0 0,1 1,2 0,3zm-108 -28c-1,2 -6,3 -15,4 -9,1 -17,7 -22,16 -8,14 -12,30 -11,49 0,21 6,35 18,43 13,9 25,2 38,-19 7,-13 11,-28 11,-46 0,-20 -4,-34 -14,-43l-9 -9 5 -3c1,2 0,4 -1,7zm120 -287l-28 33 95 110c12,14 29,17 51,10 -12,14 -26,21 -42,23 -16,2 -27,-1 -33,-9l-93 -108 -17 20 -18 -20 68 -80 18 20zm98 -134c-24,-10 -47,-14 -68,-12 -21,2 -37,9 -48,21 -9,10 -15,22 -17,35 -2,14 1,26 10,36 12,13 23,17 32,12l27 -29 23 15 -28 31 94 117c11,13 26,17 46,13 -11,12 -24,19 -39,20 -15,1 -26,-2 -31,-10l-92 -115 -19 20 -17 -21 20 -22c-11,-1 -22,-6 -31,-16 -14,-15 -20,-32 -19,-52 2,-18 10,-35 24,-50 17,-19 40,-27 68,-27 23,1 47,7 72,20l-5 15zm99 -37l-36 29 -15 -23 37 -30 14 24zm41 74c-11,9 -20,19 -28,32 10,22 15,43 17,64 2,28 -4,48 -18,60 -12,10 -24,13 -36,10 -12,-3 -23,-11 -32,-24 -8,-12 -7,-31 4,-57 7,-18 18,-35 31,-53 -4,-10 -14,-27 -29,-49 -9,-13 -19,-15 -31,-7 -8,6 -15,17 -20,30 -5,14 -5,25 0,33 2,4 6,5 11,5 4,0 7,-2 11,-5 8,-6 13,-14 15,-25 2,-10 0,-21 -9,-33 11,1 21,6 28,16 6,8 8,18 5,29 -3,11 -8,20 -16,26 -12,9 -24,13 -37,12 -13,-2 -24,-9 -32,-22 -9,-13 -10,-29 -2,-46 6,-14 15,-26 29,-37 8,-7 22,-9 42,-5 19,4 32,11 39,20 7,10 13,20 19,31 9,-12 18,-21 27,-28l13 24zm-68 97c-7,19 -8,33 -2,43 5,7 12,8 20,2 18,-14 19,-41 2,-81 -9,12 -15,24 -20,36zm101 -222l-36 23 63 134c8,17 24,25 47,24 -15,9 -31,13 -46,10 -15,-3 -25,-9 -30,-18l-62 -131 -22 14 -12 -25 86 -56 12 25zm219 123c-27,14 -56,18 -89,11 -32,-7 -64,-24 -95,-51l18 -35 12 9c7,5 17,4 29,-3 15,-8 26,-22 32,-42 6,-20 6,-38 -2,-55 -5,-11 -12,-17 -21,-20 -9,-3 -18,-2 -28,4 -16,9 -29,21 -39,38 -10,16 -14,37 -14,61l-34 -35c10,-31 36,-58 78,-80 18,-9 34,-13 49,-11 18,2 32,12 40,30 11,24 12,48 2,72 -10,22 -26,39 -49,52 -10,5 -17,9 -23,10 54,37 97,47 128,30 3,-2 6,-5 9,-9l14 14 -18 10zm45 -233l-40 13 31 147c4,19 17,31 40,36 -17,5 -32,4 -47,-3 -14,-7 -23,-15 -25,-26l-31 -144 -24 8 -6 -27 96 -32 6 27zm222 -45l-37 7 13 159c1,13 10,25 28,36 -20,-4 -34,-8 -43,-13 -12,-7 -18,-15 -18,-25l-6 -65 -17 3c-6,1 -12,3 -18,6 2,24 0,46 -7,67 -8,28 -21,44 -40,47 -13,2 -25,-1 -38,-9 -13,-8 -20,-19 -22,-33 -4,-20 3,-39 20,-58 14,-15 30,-27 50,-35 -4,-29 -8,-49 -12,-60l-77 13 -3 -28 223 -39 3 28zm-118 21c6,4 9,9 10,15l7 43c8,-3 15,-4 21,-5l15 -3 -5 -58 -48 8zm-45 122c-11,13 -15,26 -13,40 1,5 3,8 7,10 4,2 8,3 13,3 10,-1 17,-12 22,-32 3,-13 4,-28 4,-44 -13,6 -23,13 -32,23zm523 -111l-38 -5 -28 161c-1,12 5,26 19,42 -20,-8 -34,-17 -41,-27 -8,-10 -11,-20 -9,-30l14 -77c-5,3 -9,4 -14,3 -8,-1 -14,-5 -19,-11 -16,21 -40,29 -73,25 -9,-1 -19,-4 -28,-11l15 28c24,44 55,69 93,74 -13,7 -24,10 -31,9 -28,-4 -54,-20 -76,-49 -10,-13 -27,-40 -50,-83l39 -18c8,15 18,23 28,25 16,2 31,-2 44,-13 13,-11 21,-25 23,-43 2,-19 -6,-30 -24,-33 -17,-2 -34,0 -50,7 -17,7 -32,23 -47,48l13 -63c15,-15 41,-20 79,-16 17,2 31,10 43,26 12,15 17,32 15,50 -1,8 -2,15 -5,21 3,1 6,1 10,2 4,0 10,-3 19,-9l7 -42 -22 -3 5 -28 94 12 -5 28zm-41 -21c-7,-2 -15,-10 -23,-27l-21 -42c-8,5 -15,6 -21,5 -8,-2 -15,-9 -22,-20 -7,-11 -10,-22 -8,-31 1,-7 5,-12 12,-15 6,-3 13,-4 20,-2 6,2 17,16 30,42l27 53c8,16 17,25 28,28 -5,9 -12,12 -22,10zm-65 -100c-6,-1 -9,0 -10,3 -1,3 0,5 2,7 2,2 4,4 7,5 3,1 7,0 13,-3 -3,-7 -7,-11 -12,-13zm305 202l-34 -13 -60 148c-3,9 -3,16 -3,21 1,7 5,15 11,24 -17,-12 -29,-22 -34,-30 -8,-10 -10,-21 -6,-31 -1,4 2,-4 10,-22 -24,12 -49,13 -76,3 -14,-6 -24,-16 -30,-32 -6,-16 -6,-32 -1,-47 9,-26 23,-44 43,-53 20,-9 42,-9 66,1 17,7 27,24 30,51l18 -44 -131 -51 10 -26 197 77 -10 26zm-118 2c-15,-6 -32,-7 -50,-2 -21,5 -33,15 -39,31 -3,8 -2,15 1,21 3,7 8,11 15,14 16,6 35,7 57,2 22,-5 35,-12 39,-23 1,-9 -1,-18 -6,-26 -5,-8 -11,-14 -19,-17zm198 46l-38 -19 -67 132c-8,17 -6,36 7,56 -16,-9 -27,-21 -33,-36 -6,-16 -7,-28 -2,-37l65 -130 -23 -12 12 -25 91 46 -12 25zm288 226l-30 -26 -102 120c-6,10 -8,25 -5,46 -13,-19 -20,-34 -22,-47 -2,-13 1,-23 7,-30l49 -58c-5,0 -10,-2 -14,-6 -6,-5 -9,-12 -10,-20 -23,9 -48,2 -74,-21 -7,-6 -14,-15 -19,-25l-1 32c-1,51 13,90 43,117 -15,-2 -25,-5 -31,-10 -22,-19 -36,-48 -41,-85 -2,-17 -3,-50 -2,-99l42 7c0,17 4,30 12,37 13,11 27,16 44,15 17,-2 30,-9 40,-23 11,-15 10,-29 -4,-41 -14,-12 -29,-20 -45,-23 -18,-4 -39,1 -63,14l42 -47c20,-4 45,6 74,32 13,11 21,27 24,46 3,20 -1,37 -11,52 -4,6 -9,11 -15,15 2,2 4,5 7,7 3,2 10,4 21,4l27 -31 -18 -15 17 -21 74 64 -17 21zm18 -92c-4,-4 -7,-10 -6,-16 0,-7 2,-12 6,-17 4,-4 9,-6 14,-6 6,0 11,3 15,7 4,4 7,9 7,15 1,6 -1,11 -5,16 -10,12 -20,12 -32,1zm103 253l-19 -23 7 -34 32 40 -21 17zm-50 40c-9,0 -15,-3 -19,-8 -6,-7 -9,-14 -8,-23 -27,2 -50,-9 -68,-32 -7,-9 -13,-20 -16,-31l-6 31c-9,49 -2,91 24,123 -14,-5 -24,-10 -29,-16 -19,-23 -27,-54 -26,-92 1,-17 5,-49 14,-97l40 15c-2,18 1,32 10,44 11,13 24,20 39,21 16,1 30,-5 42,-16 13,-13 14,-27 1,-43 -11,-14 -24,-23 -40,-29 -15,-6 -35,-5 -59,2l42 -40c20,-1 44,16 72,50 11,13 15,29 13,48 -2,19 -9,34 -21,46 -5,5 -11,9 -17,12 2,3 3,6 6,9 3,3 12,7 29,9l-23 18zm24 170c-14,2 -28,-1 -41,-8 -13,-7 -23,-17 -31,-31 -12,-20 -14,-42 -7,-66 7,-22 19,-40 38,-53 5,-4 10,-4 15,-2 5,2 10,6 13,12l12 20c1,2 3,5 6,8 -2,-11 -2,-21 1,-31 3,-11 8,-20 16,-25 11,-8 24,-8 39,2 11,7 21,18 29,32 6,11 7,23 3,38 -4,15 -12,26 -22,32 -15,10 -33,9 -54,-2 -18,-10 -33,-24 -42,-41l-10 -13c-2,-3 -3,-3 -6,-2 -11,7 -16,18 -17,32 -1,13 3,25 10,37 7,12 20,21 38,28 18,6 42,6 71,-1l-61 33zm71 -122c-4,-8 -11,-14 -19,-20 -10,-6 -19,-8 -26,-3 -3,2 -5,6 -6,11 0,2 2,8 5,18 3,8 3,13 0,15 15,12 30,14 44,6 9,-6 9,-15 2,-27zm71 153l-18 -41 -129 57c-16,7 -25,24 -26,48 -7,-17 -9,-34 -5,-51 4,-16 11,-27 20,-30l126 -56 -11 -25 24 -11 44 98 -24 11zm29 89l-15 -42 -133 44c-17,6 -27,21 -30,46 -6,-18 -6,-35 -1,-51 5,-16 13,-25 22,-28l130 -44 -9 -26 25 -9 36 101 -25 9zm54 222l-10 -40 -142 30c-12,3 -22,14 -30,35 -1,-43 6,-66 22,-70l88 -19c-9,-11 -15,-22 -18,-32l-2 -10c-9,12 -20,20 -32,24 -12,4 -23,1 -34,-9 -9,-8 -16,-19 -19,-33 -5,-17 -4,-33 3,-48 7,-15 18,-24 35,-29 15,-5 30,0 43,12 12,11 20,25 24,43 10,38 20,63 31,75l22 -4 -38 -155 25 -6 57 229 -25 6zm-101 -140c-3,-12 -8,-21 -16,-29 -9,-10 -18,-13 -29,-10 -9,3 -12,13 -8,30 7,29 18,42 33,39 6,-2 11,-6 15,-11 4,-6 5,-12 4,-18z"/>
  <path class="fil5" d="M1622 792c465,0 841,374 841,836 0,462 -377,836 -841,836 -465,0 -841,-374 -841,-836 0,-462 377,-836 841,-836z"/>
  <g style="clip-path:url(#id0)">
   <g id="_2353723525952">
    <g>
    </g>
    <g style="clip-path:url(#id1)">
     <image x="1119" y="859" width="1005" height="1525" xlink:href="logo92x92_Images\logo92x92_ImgID1.png"/>
    </g>
    <g style="clip-path:url(#id2)">
    </g>
    <g>
     <path class="fil2" d="M1491 1597l0 28 1 97 -1 28c-5,57 -11,110 23,139 78,66 143,65 219,-3 30,-27 24,-85 20,-136l2 -28 -2 -49 0 -61 2 -458 326 -4c-19,127 -129,852 -145,877l-93 -13c-24,5 -170,276 -386,60 -24,-24 -34,-48 -59,-62 -46,-25 -52,17 -89,16 -16,-25 -45,-239 -51,-278l-4 -26 -94 -574 329 2 1 447z"/>
     <path class="fil6" d="M1521 1753c14,-159 67,-567 93,-807 4,-21 5,-27 9,-45l83 693 4 30c10,158 52,201 -36,250 -45,25 -88,18 -124,-8 -40,-29 -35,-57 -29,-113z"/>
     <path class="fil2" d="M1545 2286c-29,-111 129,-145 155,-47 14,52 -17,90 -54,100 -48,13 -91,-17 -101,-53z"/>
    </g>
   </g>
  </g>
  <path class="fil7" d="M1622 792c465,0 841,374 841,836 0,462 -377,836 -841,836 -465,0 -841,-374 -841,-836 0,-462 377,-836 841,-836z"/>
  <path class="fil0" d="M659 1847c0,4 -2,8 -5,11 -3,3 -7,5 -11,5 -4,0 -8,-2 -11,-5 -3,-3 -5,-7 -5,-11 0,-4 1,-8 4,-11 3,-3 7,-5 11,-5 4,0 8,2 11,5 3,3 5,7 5,11zm-99 -3c0,4 -2,8 -5,11 -3,3 -7,5 -11,5 -4,0 -8,-2 -11,-5 -3,-3 -5,-7 -5,-11 0,-4 2,-8 5,-11 3,-3 7,-5 11,-5 5,0 8,1 11,4 3,3 4,7 4,11zm149 152c0,4 0,7 -1,9 0,2 -2,3 -4,5l-4 1 -10 0c-6,-4 -10,-8 -13,-12 -3,-5 -5,-11 -5,-19 -1,-21 -2,-41 -3,-62 -3,-3 -6,-4 -9,-5 -3,-1 -6,-1 -10,-1l-16 0 -11 0c-2,0 -4,0 -5,0 -1,0 -3,0 -6,1 -3,1 -4,2 -5,4 -1,2 -1,6 -1,11 0,1 0,3 1,5 0,2 0,5 0,8l0 31c-1,7 -2,11 -2,12 -1,3 -4,7 -9,10l-18 8c-7,0 -12,0 -17,0 -5,0 -9,0 -13,1l-26 0 -14 0 -12 7c-2,0 -3,0 -4,1 0,1 -1,1 -2,2 -2,0 -5,1 -6,1 -2,0 -3,0 -3,0 -4,0 -7,-1 -9,-4l-1 -10c0,-2 1,-3 2,-4 1,-1 1,-3 1,-5l14 -13c5,-2 11,-4 17,-5 6,-1 13,-1 20,-1l34 0c3,0 6,0 8,0 2,0 4,-1 6,-3 1,-2 1,-3 2,-5 1,-1 1,-3 1,-4l-1 -3 1 -25c0,-8 0,-12 0,-14 0,-2 -1,-3 -2,-5l-10 0c-16,0 -28,0 -35,0 -7,0 -15,-1 -26,-3 -4,0 -8,-1 -11,-2 -3,-1 -5,-4 -8,-7 -2,-1 -3,-3 -4,-6l-1 -12c1,-9 1,-18 2,-27 -1,-2 -1,-5 -1,-7l0 -5 0 -13 -2 -16 -10 -19 -5 -12 2 -6c0,-1 1,-2 3,-3 2,-1 3,-2 4,-2 6,0 11,1 15,3 4,2 8,5 10,9 2,3 3,6 5,9 2,4 3,9 4,13 1,5 1,9 1,15l0 27 0 7c0,7 0,11 0,14 0,3 1,6 4,10l60 1c1,-4 2,-7 3,-11 1,-4 1,-9 1,-14l0 -22c0,-10 1,-18 3,-25 2,-7 6,-13 13,-18 1,0 2,-1 3,-1 1,-1 2,-2 4,-3 4,-2 8,-3 13,-4 5,-1 10,-1 14,-1 3,0 9,0 17,1 8,0 12,1 13,1 8,0 15,-1 22,-3l11 -7 5 -1c2,0 3,0 5,1 1,1 3,2 4,3 1,4 2,7 2,10 0,2 -1,6 -2,10 -1,3 -3,6 -5,9 -2,2 -5,4 -10,7 -17,2 -31,4 -40,5 -9,1 -21,1 -34,1 -3,5 -5,10 -7,15 -1,5 -2,12 -2,19l1 27c6,1 11,2 16,3 5,1 10,1 17,1 4,1 11,1 21,1 10,0 18,1 24,3l8 6c4,4 6,9 7,15 1,6 2,13 2,20l0 10 0 33c1,5 1,9 2,13 1,5 3,8 6,11zm-56 -53c0,4 -2,8 -5,11 -3,3 -7,5 -11,5 -5,0 -8,-1 -11,-4 -3,-3 -5,-7 -5,-11 0,-5 1,-8 5,-11 3,-3 7,-4 11,-4 4,0 8,1 11,4 3,3 5,7 5,11zm-96 -5c0,4 -1,8 -4,11 -3,3 -7,5 -11,5 -4,0 -8,-2 -11,-5 -3,-3 -5,-7 -5,-11 0,-4 2,-8 5,-11 3,-3 7,-5 11,-5 4,0 8,2 11,5 3,3 5,7 5,11z"/>
  <path class="fil0" d="M2728 1847c0,4 -2,8 -5,11 -3,3 -7,5 -11,5 -4,0 -8,-2 -11,-5 -3,-3 -5,-7 -5,-11 0,-4 1,-8 4,-11 3,-3 7,-5 11,-5 4,0 8,2 11,5 3,3 5,7 5,11zm-99 -3c0,4 -2,8 -5,11 -3,3 -7,5 -11,5 -4,0 -8,-2 -11,-5 -3,-3 -5,-7 -5,-11 0,-4 2,-8 5,-11 3,-3 7,-5 11,-5 5,0 8,1 11,4 3,3 4,7 4,11zm149 152c0,4 0,7 -1,9 0,2 -2,3 -4,5l-4 1 -10 0c-6,-4 -10,-8 -13,-12 -3,-5 -5,-11 -5,-19 -1,-21 -2,-41 -3,-62 -3,-3 -6,-4 -9,-5 -3,-1 -6,-1 -10,-1l-16 0 -11 0c-2,0 -4,0 -5,0 -1,0 -3,0 -6,1 -3,1 -4,2 -5,4 -1,2 -1,6 -1,11 0,1 0,3 1,5 0,2 0,5 0,8l0 31c-1,7 -2,11 -2,12 -1,3 -4,7 -9,10l-18 8c-7,0 -12,0 -17,0 -5,0 -9,0 -13,1l-26 0 -14 0 -12 7c-2,0 -3,0 -4,1 0,1 -1,1 -2,2 -2,0 -5,1 -6,1 -2,0 -3,0 -3,0 -4,0 -7,-1 -9,-4l-1 -10c0,-2 1,-3 2,-4 1,-1 1,-3 1,-5l14 -13c5,-2 11,-4 17,-5 6,-1 13,-1 20,-1l34 0c3,0 6,0 8,0 2,0 4,-1 6,-3 1,-2 1,-3 2,-5 1,-1 1,-3 1,-4l-1 -3 1 -25c0,-8 0,-12 0,-14 0,-2 -1,-3 -2,-5l-10 0c-16,0 -28,0 -35,0 -7,0 -15,-1 -26,-3 -4,0 -8,-1 -11,-2 -3,-1 -5,-4 -8,-7 -2,-1 -3,-3 -4,-6l-1 -12c1,-9 1,-18 2,-27 -1,-2 -1,-5 -1,-7l0 -5 0 -13 -2 -16 -10 -19 -5 -12 2 -6c0,-1 1,-2 3,-3 2,-1 3,-2 4,-2 6,0 11,1 15,3 4,2 8,5 10,9 2,3 3,6 5,9 2,4 3,9 4,13 1,5 1,9 1,15l0 27 0 7c0,7 0,11 0,14 0,3 1,6 4,10l60 1c1,-4 2,-7 3,-11 1,-4 1,-9 1,-14l0 -22c0,-10 1,-18 3,-25 2,-7 6,-13 13,-18 1,0 2,-1 3,-1 1,-1 2,-2 4,-3 4,-2 8,-3 13,-4 5,-1 10,-1 14,-1 3,0 9,0 17,1 8,0 12,1 13,1 8,0 15,-1 21,-3l11 -7 5 -1c2,0 3,0 5,1 1,1 3,2 4,3 1,4 2,7 2,10 0,2 -1,6 -2,10 -1,3 -3,6 -5,9 -2,2 -5,4 -10,7 -17,2 -31,4 -40,5 -9,1 -21,1 -34,1 -3,5 -5,10 -7,15 -1,5 -2,12 -2,19l1 27c6,1 11,2 16,3 5,1 10,1 17,1 4,1 11,1 21,1 10,0 18,1 24,3l8 6c4,4 6,9 7,15 1,6 2,13 2,20l0 10 0 33c1,5 1,9 2,13 1,5 3,8 6,11zm-56 -53c0,4 -2,8 -5,11 -3,3 -7,5 -11,5 -5,0 -8,-1 -11,-4 -3,-3 -5,-7 -5,-11 0,-5 1,-8 5,-11 3,-3 7,-4 11,-4 4,0 8,1 11,4 3,3 5,7 5,11zm-96 -5c0,4 -1,8 -4,11 -3,3 -7,5 -11,5 -4,0 -8,-2 -11,-5 -3,-3 -5,-7 -5,-11 0,-4 2,-8 5,-11 3,-3 7,-5 11,-5 4,0 8,2 11,5 3,3 5,7 5,11z"/>
  <path class="fil4" d="M1116 2525c-9,-4 -17,-8 -26,-11 1,17 2,33 4,49 1,17 3,33 4,50 0,5 2,10 5,15 3,6 9,13 18,22 -15,-11 -26,-20 -32,-26 -8,-9 -13,-18 -14,-26 0,2 0,-3 -1,-16 -7,2 -17,-1 -29,-7 -13,-7 -26,-19 -37,-36 -12,-17 -19,-33 -21,-47 -1,-10 0,-20 3,-31 -5,-2 -9,-5 -14,-7 -1,-6 -1,-12 -2,-18 47,25 94,50 140,72 1,6 1,12 2,18zm-100 -50c-7,9 -10,23 -7,41 1,7 4,15 9,21 5,7 11,12 18,16 15,8 27,8 36,1 -1,-17 -3,-35 -4,-52 -17,-9 -35,-18 -52,-28zm218 231c-20,-7 -40,-22 -60,-44 -20,-22 -37,-48 -53,-79 6,-2 12,-4 19,-6 2,4 4,8 6,11 4,6 10,11 20,16 12,5 21,4 29,-1 8,-6 11,-15 9,-27 -1,-8 -4,-15 -10,-21 -5,-6 -12,-11 -19,-14 -12,-5 -23,-7 -33,-5 -9,2 -16,9 -21,20 -5,-12 -11,-24 -16,-36 12,-9 35,-6 66,8 13,6 25,12 34,21 11,11 18,23 20,36 3,18 -1,30 -12,37 -10,6 -24,5 -42,-3 -7,-3 -13,-6 -17,-9 28,49 54,78 78,86 3,1 5,1 7,0 2,5 4,9 6,14 -5,-2 -9,-3 -14,-5zm113 -112c-9,-19 -20,-34 -32,-47 -12,-12 -23,-21 -34,-24 -9,-3 -16,-2 -22,0 -6,3 -9,9 -8,17 2,12 6,21 13,25 9,3 17,5 25,8 2,7 5,13 7,20 -9,-3 -18,-6 -27,-8 1,16 2,33 4,49 1,16 2,33 4,49 1,11 8,23 20,34 -11,-4 -20,-10 -29,-20 -9,-10 -13,-18 -14,-24 -1,-16 -3,-32 -4,-48 -1,-16 -2,-32 -3,-48 -6,-2 -12,-4 -18,-6 -1,-6 -1,-12 -2,-18 6,2 13,5 19,7 -6,-8 -10,-16 -11,-26 -2,-14 1,-23 9,-28 8,-4 18,-4 32,0 16,5 32,16 47,34 12,14 23,32 31,52 -3,1 -6,1 -8,2zm71 31c-10,-2 -21,-4 -31,-7 3,6 5,11 6,16 1,10 -7,14 -24,10 -5,-1 -11,-3 -20,-6 -7,-2 -13,-5 -19,-7 -2,-1 -4,0 -5,1 -2,1 -2,3 -2,5 1,4 4,9 9,14 7,-1 17,0 29,2 11,3 22,8 31,16 11,9 17,20 18,31 1,10 -2,17 -10,21 -7,3 -15,4 -25,1 -6,-4 -12,-14 -18,-28 8,3 14,5 19,7 7,2 13,2 17,0 3,-2 5,-5 5,-9 -1,-10 -11,-17 -31,-22 -12,-3 -23,-3 -32,0 -11,4 -16,11 -14,23 1,10 9,20 24,30 12,9 24,15 36,18 5,1 11,2 17,0 1,10 -2,14 -9,12 -18,-4 -36,-12 -52,-23 -22,-15 -35,-33 -37,-50 -2,-15 5,-24 21,-28 -12,-9 -18,-20 -20,-30 -1,-5 1,-9 5,-11 4,-2 9,-3 14,-2 3,1 12,4 25,9 5,2 10,3 16,5 11,3 16,1 15,-4 0,-1 0,-2 -1,-4 -30,-8 -61,-16 -91,-25 0,-6 -1,-12 -2,-18 44,13 88,24 132,34 1,6 1,12 2,18zm127 18c-8,-1 -16,-1 -24,-2 1,16 2,33 4,49 1,16 3,33 4,49 0,6 2,12 4,16 3,5 8,11 15,17 -15,-7 -25,-13 -30,-18 -7,-7 -11,-14 -11,-21 -1,-18 -3,-36 -4,-54 -11,0 -21,-2 -29,-4 -7,-2 -12,-3 -14,-4 -8,-1 -13,1 -16,8 -3,6 -3,13 -2,22 1,9 4,17 9,25 6,9 13,15 20,16 5,1 8,4 10,10 1,6 -1,8 -8,7 -11,-1 -21,-11 -32,-29 -9,-16 -15,-30 -17,-43 -2,-13 0,-23 5,-30 6,-8 15,-11 27,-9 3,1 9,2 16,4 7,2 13,3 16,4 5,1 10,1 14,0 -1,-6 -1,-13 -2,-19 -30,-4 -60,-9 -90,-15 -1,-6 -1,-12 -2,-18 45,8 91,15 136,20 1,6 1,12 2,18zm172 2c-8,0 -16,1 -24,1 1,17 2,34 4,51 1,17 3,34 4,51 0,5 2,10 5,13 3,4 9,9 17,15 -14,-4 -24,-8 -30,-11 -8,-5 -12,-12 -14,-20 0,2 0,-4 -1,-16 -7,6 -16,9 -27,10 -12,0 -24,-7 -35,-19 -11,-12 -18,-25 -19,-39 -1,-10 0,-21 3,-34 -4,0 -9,0 -13,0 -1,-6 -1,-12 -2,-18 44,1 87,1 130,-2 1,6 1,12 2,18zm-93 3c-7,14 -9,29 -6,47 1,7 4,13 9,18 5,5 10,8 17,8 14,0 25,-7 33,-19 -2,-18 -3,-36 -4,-53 -16,0 -32,0 -48,0zm203 127c-19,3 -37,-2 -56,-14 -19,-12 -35,-31 -50,-56 6,-5 11,-11 17,-16 2,3 4,6 6,9 3,5 9,6 18,5 11,-1 20,-7 27,-18 7,-11 10,-22 8,-34 -1,-8 -4,-13 -9,-17 -5,-4 -11,-5 -18,-4 -11,1 -22,6 -30,13 -9,7 -15,18 -19,33 -5,-10 -10,-20 -15,-31 12,-16 32,-25 61,-29 12,-1 23,0 32,4 11,5 17,15 19,28 3,18 -1,33 -11,46 -9,12 -22,18 -39,21 -7,1 -12,1 -16,1 27,36 51,53 72,49 3,0 5,-2 7,-4 2,4 4,8 6,12 -4,1 -9,1 -13,2zm135 -174c-8,2 -16,5 -23,7 1,18 3,35 4,53 2,18 3,35 4,53 1,8 6,16 17,23 -13,-2 -22,-4 -27,-7 -7,-4 -11,-10 -11,-16 -1,-14 -2,-29 -4,-43 -4,1 -7,2 -11,3 -4,1 -7,3 -11,5 1,16 0,31 -4,45 -5,19 -14,29 -25,32 -8,2 -16,0 -24,-6 -8,-6 -12,-13 -14,-22 -2,-13 2,-26 13,-38 9,-10 19,-18 31,-24 -3,-19 -5,-32 -8,-40 -16,3 -32,6 -49,9 -1,-6 -1,-12 -2,-18 47,-9 94,-20 140,-32 1,6 1,12 2,19zm-74 20c4,3 6,6 6,9 1,9 3,19 5,28 5,-2 9,-3 13,-4 3,-1 6,-2 9,-2 -1,-13 -2,-26 -3,-39 -10,3 -20,5 -30,8zm-28 82c-7,9 -10,17 -9,27 0,3 2,5 5,7 3,2 5,2 8,2 6,-1 11,-9 14,-22 2,-9 3,-19 2,-29 -8,4 -15,9 -20,16zm154 -119c-9,3 -17,6 -25,9 1,17 2,33 4,50 1,17 3,33 4,50 1,13 8,21 22,25 -11,3 -20,2 -29,-3 -8,-5 -13,-11 -13,-18 -1,-16 -3,-33 -4,-49 -1,-16 -3,-33 -4,-49 -5,2 -10,3 -16,5 -1,-6 -1,-13 -2,-19 20,-6 41,-13 61,-20 1,6 1,12 2,19zm-34 -3c-5,2 -11,-1 -19,-8 -7,-6 -14,-12 -21,-18 -3,5 -7,8 -11,9 -5,1 -11,0 -17,-5 -6,-5 -10,-10 -11,-16 -1,-5 1,-9 4,-13 3,-4 7,-7 11,-8 4,-1 13,4 27,16 9,8 18,15 27,23 8,7 15,9 22,7 -1,7 -4,11 -11,13zm-59 -39c-4,1 -6,3 -5,5 0,2 1,3 3,4 2,1 3,1 5,1 2,-1 4,-2 7,-6 -3,-3 -7,-5 -9,-4zm188 100c-5,17 -18,30 -39,39 -9,4 -19,4 -29,2 -11,-3 -18,-10 -19,-20 -2,-10 2,-20 9,-30 6,-8 13,-16 23,-22 -9,0 -16,-2 -23,-6 -8,-5 -12,-12 -14,-20 -1,-10 2,-20 9,-29 7,-8 15,-13 24,-17 9,-3 16,-4 22,-1 7,3 12,9 13,19 2,16 -5,27 -23,35 -5,2 -10,3 -15,1 -5,-2 -9,-8 -11,-17 5,3 11,3 16,1 4,-2 8,-5 12,-9 5,-5 7,-10 7,-14 0,-3 -5,-4 -12,0 -16,6 -24,16 -22,30 1,8 6,14 16,16 7,1 15,1 24,-1 5,6 9,13 9,19 -3,1 -5,1 -8,2 -9,3 -17,10 -25,18 -10,10 -14,18 -13,26 1,8 7,10 17,7 12,-5 21,-11 29,-20 10,-10 15,-22 16,-34 1,0 2,-1 3,-1 1,10 2,20 3,30zm44 -115c-8,4 -17,8 -25,12 1,17 2,34 4,50 1,17 3,33 4,50 1,13 8,20 21,23 -11,4 -20,4 -28,0 -8,-4 -12,-10 -13,-17 -1,-16 -3,-33 -4,-49 -1,-16 -3,-33 -4,-49 -5,2 -10,5 -15,7 -1,-6 -1,-12 -2,-19 20,-9 40,-18 60,-28 1,6 1,13 2,19zm126 -69c-7,4 -15,9 -22,13 1,18 2,35 4,53 1,18 3,35 4,53 1,8 6,14 17,18 -12,3 -20,3 -25,2 -7,-2 -10,-7 -11,-13 -1,-14 -2,-29 -4,-43 -3,2 -7,4 -10,6 -3,2 -7,5 -11,8 1,16 0,31 -4,47 -5,21 -13,34 -24,40 -8,4 -15,4 -23,1 -8,-3 -12,-9 -13,-18 -2,-13 2,-28 12,-44 8,-13 18,-24 30,-33 -3,-19 -5,-32 -7,-39 -16,8 -31,15 -47,23 -1,-6 -1,-12 -2,-19 45,-22 90,-46 134,-73 1,6 1,12 2,18zm-71 41c4,2 6,4 6,8 1,9 3,18 4,28 5,-3 9,-6 12,-8 3,-2 6,-3 9,-5 -1,-13 -2,-26 -3,-39 -10,5 -19,11 -29,16zm-27 92c-7,11 -9,21 -8,30 0,3 2,5 4,6 2,1 5,1 8,-1 6,-3 10,-12 13,-26 2,-10 2,-20 2,-30 -8,6 -14,13 -19,22zm82 -196c-8,5 -15,11 -21,19 -7,10 -10,19 -9,28 1,5 3,10 5,13 3,3 11,3 24,-1 -8,5 -16,9 -24,14 -12,-1 -19,-9 -21,-23 -2,-12 0,-23 7,-36 7,-12 15,-21 25,-27 6,-3 11,-5 17,-4 7,1 12,5 13,14 -6,0 -12,1 -17,3zm51 93c-2,5 -5,8 -9,10 -3,2 -6,2 -9,1 -3,-1 -5,-4 -6,-9 -1,-4 0,-8 2,-12 2,-4 5,-8 9,-10 4,-2 7,-3 10,-2 3,1 5,4 5,8 1,4 0,8 -3,13zm3 57c-2,5 -5,9 -9,11 -3,2 -7,2 -9,1 -3,-2 -5,-5 -5,-9 -1,-4 0,-8 3,-13 2,-4 5,-8 9,-10 3,-2 6,-2 9,-1 3,1 4,4 5,8 1,4 0,8 -2,12z"/>
 </g>
</svg>
