<?xml version="1.0" encoding="UTF-8"?>
<!DOCTYPE svg PUBLIC "-//W3C//DTD SVG 1.1//EN" "http://www.w3.org/Graphics/SVG/1.1/DTD/svg11.dtd">
<!-- Creator: CorelDRAW 2017 -->
<?xml-stylesheet href="8848-vectorlogo-2cf0b811-70df-4487-b88f-9b90d376a555.css" type="text/css"?>
<svg xmlns="http://www.w3.org/2000/svg" xml:space="preserve" width="705.555mm" height="1763.89mm" version="1.1" style="shape-rendering:geometricPrecision; text-rendering:geometricPrecision; image-rendering:optimizeQuality; fill-rule:evenodd; clip-rule:evenodd"
viewBox="0 0 70556 176389"
 xmlns:xlink="http://www.w3.org/1999/xlink">
 <g id="Layer_x0020_1">
  <metadata id="CorelCorpID_0Corel-Layer"/>
  <g id="_2198571363232">
   <path class="fil0" d="M32888 87133c-34,-23 -5,-11 -47,-28 4,59 4,133 25,175 -40,-15 -33,-10 -52,-50 -110,6 -99,-46 -127,-150 60,-4 122,2 180,-4 59,-5 98,-46 145,9 30,78 -13,101 -72,120 27,55 52,53 87,71l18 12c-80,-3 -146,-54 -153,-85 -18,-81 52,26 91,-48 19,-119 -67,-79 -96,-21zm-684 -230c115,-21 130,103 177,124 67,29 187,26 251,49 -14,37 5,11 -32,34l18 163c-59,-18 -40,-44 -55,-118 -36,-8 -39,-15 -72,-3 -12,84 24,46 49,116 -42,-9 -18,3 -47,-20 -25,-20 -44,-68 -40,-107 2,-25 6,-25 8,-31 60,-19 58,11 98,0 -9,-25 -45,-21 -78,-27 -13,-2 -42,-9 -52,-6 -30,9 15,-7 -33,31l-65 -17c-8,33 65,-10 104,82l-27 -17c-34,-18 -35,-22 -81,-10 0,2 -26,32 31,67 13,8 27,11 36,16 31,18 18,-1 27,30 -155,-17 -132,-99 -127,-142l0 -14c0,-3 -9,-24 -11,-52 68,-4 50,9 99,16l-137 -40c-2,49 8,137 22,170 -93,-29 -33,-93 -73,-184 -16,-36 -13,-77 10,-110zm-387 -95l159 69c19,10 35,23 54,30 91,36 179,43 145,163 -46,14 -71,6 -80,-3 28,20 -2,28 81,92 38,30 15,0 30,36 -55,-15 -51,-19 -84,-46 -46,-38 -71,-56 -97,-143 97,10 22,37 104,32 13,-34 9,-30 2,-70 -36,-10 -58,-25 -99,3l-23 -23c-16,-17 -2,-5 -20,-22l17 161c-16,-8 -18,-1 -37,-24 -27,-32 12,-19 -47,-57 -118,-74 -76,-129 -105,-200zm1856 13c-26,54 -48,69 -5,211 -54,-2 -25,3 -54,-59l-8 -13c-33,58 -13,153 -102,133 -25,-137 68,-82 42,-180 -30,3 -55,24 -87,38 4,42 -4,126 24,149l-41 14c-64,15 -45,60 -133,33 -9,-56 0,-61 28,-98 -38,-22 -71,-70 -74,16 -2,56 3,106 29,137l-45 -4 -21 -159c-49,13 -36,17 -32,73 3,44 2,72 16,113 -56,-6 -27,8 -42,-34 -15,-44 20,-32 -25,-50 -13,29 -8,63 -26,91 -40,59 -120,-12 -57,-79 30,-32 40,-8 32,-67 -43,-22 3,5 -65,-17 -3,-1 -7,-2 -10,-4 3,-2 7,-7 8,-5 2,2 6,-4 8,-5l80 -24c40,-9 66,-14 106,-25 -39,-62 -105,9 -82,-76 55,-14 73,44 117,55 75,18 36,-57 136,-37 8,58 9,55 -33,78 61,11 20,-7 37,32 -35,13 -55,20 -56,69 62,-17 100,-56 91,-125l-24 -69c72,-16 126,-61 187,-86 -21,-76 -8,-131 76,-129 -21,44 -48,34 -57,74 -9,41 16,24 38,24 2,0 5,0 7,0l13 2zm373 -952c64,14 48,77 53,152l89 1c24,-187 -4,-113 181,-154 4,135 -158,-27 -134,146l115 17c23,38 18,95 26,169 -97,0 -17,-100 -69,-131 -22,-13 -64,-8 -72,18 -27,84 76,92 -186,123 -4,-84 76,-46 141,-68l3 -64c-54,-16 -92,-3 -134,-27 -4,-38 2,-69 -4,-105 -7,-38 -30,-45 -8,-76zm-2937 5c74,-9 51,85 60,144l85 3c13,-107 -26,-143 153,-146 20,0 13,-4 28,5 37,102 -149,-34 -133,133l125 20 12 147c-2,21 2,8 -5,22 -52,-10 -36,-27 -41,-88 -5,-63 -16,-50 -84,-49l-12 115c-23,7 -157,27 -180,28 -2,-85 72,-43 141,-66l3 -68c-58,-7 -123,13 -136,-45 -5,-22 1,-56 -3,-84 -6,-40 -16,-25 -13,-71zm2815 -70c-140,1020 -1401,1418 -2100,617 -168,-193 -321,-549 -267,-911 69,-459 371,-830 798,-970 170,-56 329,-75 526,-55 585,60 1138,627 1044,1319zm-2750 -295c-1,-38 -9,-62 4,-88 94,21 -26,37 98,100 0,48 1,49 -34,72 -54,-24 -12,-35 -68,-60 -37,163 209,174 145,-5 41,-4 51,-3 57,33 19,109 -169,192 -240,60 -28,-52 -22,-96 38,-112zm2904 -527c42,-176 200,27 100,89 -93,41 -120,-54 -164,-78 -26,31 -30,68 7,108 32,36 69,28 123,34l-56 35c176,-51 126,-72 138,-103 33,6 17,-2 35,21 39,49 119,351 133,413 12,52 32,100 24,138l-8 16c-37,-17 -4,3 -26,-27l-17 -25c-81,17 -172,34 -230,63 2,-79 -7,-73 147,-97l-23 -47c-27,2 -102,61 -121,-40 -16,-86 25,-115 104,-108 34,42 34,30 53,94 14,44 15,82 52,85 1,-3 2,-7 3,-9 9,-52 -18,-124 -55,-256 -45,7 -96,27 -139,41 -68,23 -64,19 -98,68 -15,-143 94,-93 215,-171l-25 -61c-43,11 -87,34 -129,52 -47,19 -78,27 -91,80 -25,-66 -5,-93 49,-115 -46,-18 -46,1 -87,-40 -72,-72 -10,-172 11,-185 41,-26 54,8 75,27zm-197 -245c29,6 23,37 35,62 14,28 58,53 104,29 77,-39 -4,-124 -112,-118 75,-116 181,21 170,97 -4,30 -19,42 -36,63l26 44c-70,36 -28,-1 -96,-30 -85,-36 -40,-33 -93,-60 -19,78 -5,123 23,184 -96,-16 -77,-184 -55,-264 25,-12 -29,-22 35,-7zm-251 -174c-6,94 9,132 47,193 -96,-16 -96,-160 -91,-266 103,6 33,46 103,75 105,44 174,-145 -49,-111 36,-73 93,-64 149,-10 67,66 17,117 2,168 35,8 52,1 61,-25 16,-49 -31,15 2,-57 36,10 94,60 110,99 -31,12 -38,-1 -67,-12 -46,40 -144,150 -154,216 -55,-98 5,-111 44,-175 -84,-101 -1,34 -155,-96zm-1735 -76c-27,54 -46,20 -27,90 17,61 25,159 -59,154 -53,-3 -34,-8 -45,-30 -51,-62 45,-127 34,-183 -32,18 -3,-5 -29,35 -8,13 -15,23 -22,36l-82 -13c-40,-90 -5,-69 16,-140 -113,-22 -225,16 -144,135 51,-8 51,-43 76,-34 37,14 -1,21 -6,67 27,34 52,66 80,100 88,108 28,41 95,82 -55,59 -102,-6 -128,-38 -34,-43 -59,-74 -92,-110 -19,17 -25,19 -37,41 16,37 54,73 82,106 66,77 62,53 106,78 -82,48 -107,-3 -152,-54 -146,-161 -43,-55 -117,-73 -13,-45 -2,-31 31,-68 25,-28 23,-37 54,-63l-11 -10c-1,-1 -4,-3 -6,-5 -2,-2 -9,-8 -12,-10 -29,-27 -41,-55 -27,-103 12,-41 54,-78 103,-84 66,-8 100,21 140,30 85,18 80,2 116,71 29,-14 12,-11 43,-28 2,2 14,14 19,19zm0 0c-13,-43 -27,-81 -56,-105 -64,73 -65,31 -66,31 -13,-56 155,-113 190,-145 22,-20 37,-38 66,-53 123,-62 229,76 57,208l-13 10c81,80 163,28 195,43 -33,35 -85,47 -150,32 -62,-15 -94,-37 -128,-74 32,-54 8,-31 54,-35 113,-9 88,-153 42,-167 -96,2 -87,72 -118,134 -19,-14 -58,-63 -71,-8 -4,18 26,67 36,90 29,65 34,119 104,131 -94,56 -108,-38 -143,-91zm276 -299c17,-42 14,-23 99,-53 119,-42 103,-33 233,-56 70,-13 92,-28 124,2 -14,30 -29,21 -49,43 3,47 7,94 11,142 5,71 2,70 28,117l-64 -20c-21,-54 -5,-91 -29,-119 -69,19 -13,65 -55,134 -36,59 -86,37 -129,5 -15,-121 31,-111 90,-168l-10 -76c-65,9 -108,20 -158,48 2,48 20,102 29,149 12,58 5,78 56,104 -101,23 -97,-25 -137,-231 -35,-12 -15,21 -41,-21zm858 -29c-4,-73 -11,18 -21,-61l39 -17c-50,-86 -6,-25 -71,-67 -31,-19 -37,-45 -23,-82 78,-8 89,82 117,129 34,58 213,95 333,149 30,14 43,29 73,44 49,24 58,17 67,52 -18,13 -5,8 -30,7 0,0 -32,-9 -38,-10 -11,34 -42,89 -59,123 -10,20 -21,34 -29,58l-17 68c-73,-107 41,-171 63,-275 -26,-19 -18,-17 -48,-32 -35,28 -82,169 -99,222l-10 25c-1,-2 -2,6 -4,8 -23,-28 -36,-44 -22,-94 -42,3 -84,15 -120,-17 -55,-49 -33,-189 92,-182 66,3 54,27 84,66l19 -49 -232 -81c-31,48 -56,216 -35,272 -81,-22 -53,-85 -48,-127 2,-12 2,-12 2,-26 -1,-35 0,-11 -4,-23 -71,-17 -56,35 -170,13 22,72 67,109 135,137 -100,45 -175,-103 -212,-172l41 -26c33,13 56,52 110,21 33,-19 42,-60 28,-105 -78,-19 -108,20 -151,41 9,-80 42,-103 127,-82 77,19 58,71 80,138 31,-10 36,-3 33,-44zm-2017 1108c193,-44 133,-74 229,-244 28,-49 64,-108 90,-156 43,-78 71,-158 102,-122 11,24 -80,152 -94,194 21,19 12,14 40,26 9,-113 75,-184 160,-103 29,28 42,81 22,128 -20,50 -60,49 -95,21 28,-22 57,-30 59,-75 2,-50 -26,-66 -75,-66 -32,78 -37,139 44,187 3,2 25,14 27,16 23,19 11,-5 17,25 -38,18 -50,14 -83,3 -7,94 -62,177 -150,114 -38,-27 -43,-70 -34,-116 11,-54 42,-63 70,-87 -16,-19 -8,-13 -29,-28 -24,26 -43,67 -63,102 -29,50 -33,71 -46,133 40,13 71,35 113,58 76,43 97,34 115,45 -103,87 -148,-45 -254,-55l-16 77c90,19 147,85 241,63 -44,97 -118,36 -257,-19 -39,104 -47,219 -59,249 -16,40 0,10 -17,24 -32,-20 -22,10 -17,-46 11,-111 64,-258 89,-362 -102,29 -71,31 -80,47 -27,48 -3,36 -65,52 -45,55 -37,344 -34,407 17,375 152,687 358,968 117,159 285,308 455,422 974,653 2440,142 2708,-1154 150,-724 -198,-1459 -757,-1825 -977,-640 -2219,-185 -2616,764 -24,57 -116,278 -100,330z"/>
   <path class="fil1" d="M32529 83770c276,-41 601,10 835,94 1281,458 1671,2048 821,3012 -147,166 -286,314 -516,436 -947,503 -2084,178 -2583,-731 -400,-730 -283,-1573 206,-2147 339,-398 700,-584 1236,-664zm-1403 270c19,100 50,142 2,239 -32,66 -87,123 -110,179 -22,54 -43,180 -57,243 -30,134 -22,187 -77,211 -157,70 -185,178 -221,367 -72,379 -94,213 -214,376 53,55 129,68 162,149 118,298 -32,390 307,611 -80,171 4,300 85,420 149,218 112,126 124,435 108,-8 138,-49 249,5 65,32 125,87 180,109 52,21 177,42 234,55 138,30 182,21 208,80 64,146 189,184 371,217 346,62 213,77 371,212 83,-58 26,-113 154,-160 73,-27 161,-40 242,-57 348,-73 293,-152 364,-246 166,44 216,44 415,-89 228,-153 124,-106 440,-127 -20,-100 -53,-131 -1,-238 33,-69 88,-126 110,-179 20,-47 42,-183 56,-243 31,-141 19,-186 79,-211 270,-113 188,-487 283,-606 43,-54 123,-87 152,-139 -102,-134 -121,65 -219,-394 -51,-238 -78,-289 -246,-362 40,-180 50,-213 -90,-425 -141,-213 -119,-125 -121,-435 -110,9 -135,53 -253,-4 -68,-33 -123,-86 -177,-112l-364 -76c-61,-11 -59,-3 -81,-57 -112,-265 -455,-175 -598,-280 -54,-40 -88,-112 -144,-147 -67,64 -43,120 -152,161 -253,94 -480,13 -607,301 -206,-57 -281,4 -421,95 -226,146 -123,100 -434,121z"/>
   <path class="fil2" d="M32661 85176c48,-62 30,-432 79,-514 16,53 26,184 32,244 4,42 16,215 37,243 6,-43 -8,-59 -11,-105l14 -204c4,-35 21,-52 35,-68 35,7 35,15 55,21 26,8 19,-2 46,-11 2,3 8,10 9,12 1,1 3,4 5,6 22,24 42,22 77,26 113,15 110,86 301,90 17,36 58,42 84,66 2,67 -8,14 -18,88 90,-19 14,-13 62,-31 55,-21 42,27 44,46 7,61 47,42 85,128 8,19 6,10 10,22 13,34 9,66 33,97 1,1 12,14 15,17 39,40 35,40 36,111l0 354c-1,139 -5,100 -56,188 -25,43 -14,58 -32,97 -24,53 -72,93 -111,134 -40,42 -59,95 -108,127 -66,43 -14,19 -44,71 -119,3 -72,34 -159,36l-4 61c-43,1 -43,-3 -73,11 -13,6 -14,7 -26,17 -25,21 1,-1 -16,16 -38,38 -50,34 -126,30 -1,-43 -1,-64 -14,-93 -36,53 -20,50 -25,128 -35,26 -34,25 -71,27 -60,4 -132,43 -180,-15 -26,-32 -11,-37 -56,-55 0,-39 5,-46 10,-80 -43,18 -9,17 -60,36l-29 16c-1,-2 -2,4 -4,5 -34,-46 -46,-27 -152,-60 -91,-27 -81,-43 -142,-94 -2,-2 -9,-7 -12,-9l-39 -25c-2,-1 -4,-4 -5,-5l-86 -63c-2,0 -8,1 -10,1 -10,-1 -1,25 -44,-32 20,-58 8,14 28,-43 -21,-35 -33,-34 -66,-59 -70,-54 -33,-87 -111,-92 -3,-50 -33,-142 -38,-154 -1,-2 -2,-5 -3,-7 -1,-2 -2,-5 -3,-7l-6 -15c-17,-62 -6,-317 -5,-435 2,-151 -27,-146 57,-242 36,-41 42,-103 71,-144l48 -34c31,-7 3,1 52,13 2,-17 11,-73 15,-80 16,-34 62,-38 97,-48 3,-1 6,-2 9,-3l18 -5c80,-17 331,3 413,33 10,39 13,42 12,94 34,-1 15,6 25,-15 1,-2 4,-11 5,-14l26 -130c21,-57 -4,-145 15,-204 2,99 8,132 2,233l-13 249zm1262 629c95,-693 -459,-1259 -1044,-1319 -197,-20 -356,-1 -526,55 -427,140 -729,512 -798,970 -54,362 99,718 267,911 699,801 1961,402 2100,-617z"/>
   <path class="fil3" d="M32632 86597c-37,-164 181,-203 216,-66 41,163 -189,183 -216,66zm-332 -375c-37,-55 -137,-760 -164,-926 -13,-80 -49,-244 -46,-310 30,-2 433,-10 453,10 39,40 -7,838 8,960 22,184 360,195 378,-11 7,-81 -12,-875 0,-928 9,-41 -12,3 10,-19 27,-22 385,-18 447,-10 2,65 -172,1223 -211,1229l-27 4c-46,0 -65,-25 -110,0 -33,19 -251,369 -534,67 -152,-163 -99,-76 -203,-65zm508 -1073c-16,134 80,615 80,741 1,172 -286,194 -297,22 -7,-112 90,-641 69,-737l13 -249c6,-101 1,-135 -2,-233 -20,59 6,148 -15,204l-26 130c-1,3 -4,12 -5,14 -10,21 9,14 -25,15 1,-52 -2,-55 -12,-94 -82,-30 -333,-50 -413,-33l-18 5c-3,1 -6,2 -9,3 -34,10 -81,14 -97,48 -4,8 -13,63 -15,80 -48,-12 -21,-20 -52,-13l-48 34c-29,41 -35,103 -71,144 -84,96 -55,91 -57,242 -1,118 -13,373 5,435l6 15c1,2 2,5 3,7 1,2 2,5 3,7 5,13 35,105 38,154 78,5 41,39 111,92 33,26 45,24 66,59 -19,57 -8,-15 -28,43 43,57 34,32 44,32 2,0 8,-1 10,-1l86 63c2,2 4,4 5,5l39 25c3,2 10,7 12,9 60,51 51,67 142,94 107,32 118,14 152,60 1,-2 3,-7 4,-5l29 -16c51,-19 17,-18 60,-36 -5,34 -10,41 -10,80 45,18 30,23 56,55 48,58 121,19 180,15 37,-2 36,-1 71,-27 5,-78 -11,-75 25,-128 13,30 13,51 14,93 76,4 88,7 126,-30 17,-17 -9,5 16,-16 12,-10 13,-11 26,-17 30,-14 30,-11 73,-11l4 -61c87,-2 41,-33 159,-36 30,-52 -22,-28 44,-71 49,-32 68,-84 108,-127 39,-41 87,-82 111,-134 18,-39 6,-54 32,-97 51,-88 55,-49 56,-188l0 -354c0,-71 3,-71 -36,-111 -3,-3 -15,-16 -15,-17 -23,-31 -20,-63 -33,-97 -4,-12 -1,-3 -10,-22 -38,-86 -78,-66 -85,-128 -2,-19 11,-67 -44,-46 -48,18 28,12 -62,31 10,-74 20,-21 18,-88 -27,-24 -67,-31 -84,-66 -191,-4 -188,-74 -301,-90 -35,-5 -55,-2 -77,-26 -1,-2 -4,-5 -5,-6 -2,-2 -7,-9 -9,-12 -27,8 -20,19 -46,11 -20,-6 -19,-14 -55,-21 -14,16 -30,33 -35,68l-14 204c3,46 17,62 11,105z"/>
   <path class="fil4" d="M32301 86222c104,-11 51,-98 203,65 283,303 501,-48 534,-67 45,-25 64,0 110,0l27 -4c39,-7 213,-1165 211,-1229 -62,-8 -420,-12 -447,10 -22,23 0,-21 -10,19 -12,54 7,847 0,928 -17,206 -356,195 -378,11 -14,-122 31,-920 -8,-960 -19,-20 -423,-12 -453,-10 -3,66 33,231 46,310 27,166 126,872 164,926z"/>
   <path class="fil5" d="M30997 85356c0,0 -18,-16 -18,-17 -5,-6 -11,-15 -12,-19 19,-37 19,-26 45,-52 -17,-52 76,-273 100,-330 397,-949 1639,-1404 2616,-764 559,366 907,1100 757,1825 -268,1296 -1734,1808 -2708,1154 -171,-115 -339,-264 -455,-422 -207,-281 -342,-593 -358,-968 -3,-62 -11,-352 34,-407zm-93 471c32,289 100,480 214,700 89,170 176,274 291,404 43,49 70,68 115,110 296,280 814,522 1382,451 379,-47 709,-165 983,-397 457,-386 754,-963 685,-1606 -57,-530 -261,-885 -621,-1220 -523,-487 -1386,-609 -2087,-236 -164,87 -265,159 -407,289 -326,298 -624,894 -556,1504z"/>
   <path class="fil6" d="M30905 85826c-68,-610 229,-1206 556,-1504 142,-130 244,-202 407,-289 701,-373 1563,-251 2087,236 360,335 564,690 621,1220 69,643 -228,1219 -685,1606 -274,232 -604,350 -983,397 -569,70 -1086,-171 -1382,-451 -44,-42 -72,-61 -115,-110 -115,-130 -203,-234 -291,-404 -115,-220 -182,-411 -214,-700zm1624 -2057c-536,79 -897,266 -1236,664 -489,574 -607,1417 -206,2147 499,910 1636,1234 2583,731 230,-122 370,-270 516,-436 849,-965 460,-2555 -821,-3012 -234,-84 -560,-135 -835,-94z"/>
   <path class="fil7" d="M32661 85176c22,95 -76,625 -69,737 11,172 298,150 297,-22 -1,-127 -97,-607 -80,-741 -21,-28 -34,-201 -37,-243 -5,-61 -16,-191 -32,-244 -49,82 -31,452 -79,514z"/>
   <path class="fil8" d="M31345 85204c-43,-44 -41,-178 51,-153 17,27 22,53 12,96 -11,42 -21,52 -62,57zm-333 64c-26,26 -26,15 -45,52 2,4 7,13 12,19 1,1 18,17 18,17 62,-17 38,-4 65,-52 9,-17 -22,-19 80,-47 -26,104 -78,251 -89,362 -6,56 -15,26 17,46 17,-15 1,15 17,-24 13,-31 21,-145 59,-249 139,55 213,116 257,19 -94,22 -151,-45 -241,-63l16 -77c106,10 151,142 254,55 -17,-11 -38,-3 -115,-45 -42,-23 -73,-45 -113,-58 13,-62 17,-82 46,-133 20,-36 39,-76 63,-102 21,15 13,10 29,28 -28,24 -59,33 -70,87 -9,45 -4,88 34,116 88,63 143,-20 150,-114 33,11 45,15 83,-3 -7,-30 6,-5 -17,-25 -2,-2 -23,-14 -27,-16 -81,-48 -76,-109 -44,-187 49,0 77,16 75,66 -2,45 -31,53 -59,75 35,28 75,28 95,-21 19,-47 7,-100 -22,-128 -85,-82 -151,-10 -160,103 -28,-12 -19,-7 -40,-26 14,-42 105,-171 94,-194 -31,-36 -60,44 -102,122 -26,48 -62,107 -90,156 -96,169 -36,200 -229,244z"/>
   <path class="fil9" d="M34077 84983c-21,-19 -34,-53 -75,-27 -20,13 -82,113 -11,185 41,41 41,22 87,40 -54,22 -74,50 -49,115 13,-53 44,-61 91,-80 43,-18 86,-40 129,-52l25 61c-120,78 -229,28 -215,171 34,-49 29,-45 98,-68 43,-14 94,-34 139,-41 37,132 64,205 55,256 0,2 -1,6 -3,9 -37,-3 -38,-41 -52,-85 -20,-64 -19,-51 -53,-94 -80,-7 -120,22 -104,108 19,101 94,42 121,40l23 47c-155,23 -145,18 -147,97 57,-29 149,-46 230,-63l17 25c22,30 -11,10 26,27l8 -16c8,-38 -11,-86 -24,-138 -15,-62 -94,-364 -133,-413 -18,-22 -2,-15 -35,-21 -12,31 38,52 -138,103l56 -35c-53,-6 -90,2 -123,-34 -36,-40 -32,-77 -7,-108 44,24 70,118 164,78 100,-62 -57,-265 -100,-89z"/>
   <path class="fil8" d="M33127 84328c4,-50 33,-72 84,-72 54,-1 72,25 74,75 -51,35 -113,50 -158,-3zm-79 -246l-39 17c10,78 17,-12 21,61 2,41 -3,34 -33,44 -22,-66 -3,-119 -80,-138 -85,-21 -119,2 -127,82 43,-21 73,-60 151,-41 13,45 5,86 -28,105 -54,31 -77,-7 -110,-21l-41 26c37,69 111,218 212,172 -68,-28 -113,-66 -135,-137 114,22 99,-30 170,-13 5,12 3,-12 4,23 0,13 0,13 -2,26 -5,42 -33,105 48,127 -21,-55 5,-223 35,-272l232 81 -19 49c-30,-39 -19,-62 -84,-66 -125,-7 -147,134 -92,182 36,32 78,20 120,17 -14,50 -1,66 22,94 2,-2 4,-9 4,-8l10 -25c17,-53 64,-195 99,-222 30,16 22,14 48,32 -22,104 -135,168 -63,275l17 -68c8,-24 19,-37 29,-58 17,-34 48,-89 59,-123 6,2 37,10 38,10 25,1 12,5 30,-7 -9,-35 -18,-28 -67,-52 -30,-15 -43,-30 -73,-44 -120,-54 -298,-92 -333,-149 -28,-47 -39,-137 -117,-129 -15,38 -8,63 23,82 66,42 22,-19 71,67z"/>
   <path class="fil9" d="M31895 84488c-5,-5 -17,-17 -19,-19 -32,16 -15,14 -43,28 -36,-69 -31,-53 -116,-71 -40,-9 -75,-38 -140,-30 -48,6 -90,42 -103,84 -14,48 -2,76 27,103 2,2 9,8 12,10 2,1 4,4 6,5l11 10c-32,26 -30,35 -54,63 -32,37 -44,23 -31,68 74,18 -29,-88 117,73 45,50 70,102 152,54 -44,-25 -41,-1 -106,-78 -28,-33 -66,-69 -82,-106 12,-23 19,-25 37,-41 33,36 58,67 92,110 26,33 73,97 128,38 -66,-41 -7,26 -95,-82 -28,-34 -52,-66 -80,-100 6,-46 43,-53 6,-67 -24,-9 -25,26 -76,34 -81,-119 31,-157 144,-135 -22,71 -56,50 -16,140l82 13c7,-13 14,-23 22,-36 27,-40 -3,-17 29,-35 11,56 -85,121 -34,183 11,22 -8,27 45,30 84,5 76,-93 59,-154 -19,-70 1,-36 27,-90z"/>
   <path class="fil10" d="M33659 86820c-1,0 -5,0 -7,0 -23,0 -47,17 -38,-24 9,-40 36,-30 57,-74 -84,-2 -97,53 -76,129 -61,25 -115,70 -187,86l24 69c9,68 -29,108 -91,125 1,-49 21,-56 56,-69 -17,-39 24,-21 -37,-32 42,-23 41,-19 33,-78 -100,-19 -62,55 -136,37 -44,-11 -62,-69 -117,-55 -23,85 43,14 82,76 -40,10 -67,16 -106,25l-80 24c-2,1 -7,7 -8,5 -2,-2 -6,3 -8,5 3,2 7,3 10,4 68,22 22,-5 65,17 8,59 -2,35 -32,67 -62,67 18,139 57,79 19,-28 13,-62 26,-91 44,18 10,5 25,50 14,41 -14,28 42,34 -14,-41 -13,-69 -16,-113 -4,-56 -18,-60 32,-73l21 159 45 4c-25,-32 -31,-81 -29,-137 3,-86 36,-37 74,-16 -28,37 -38,41 -28,98 88,26 69,-18 133,-33l41 -14c-28,-23 -21,-108 -24,-149 31,-14 57,-35 87,-38 26,98 -67,43 -42,180 90,20 70,-75 102,-133l8 13c29,62 0,57 54,59 -44,-142 -21,-158 5,-211l-13 -2z"/>
   <path class="fil10" d="M32171 84189c25,43 6,9 41,21 40,206 36,254 137,231 -51,-26 -44,-46 -56,-104 -10,-47 -28,-101 -29,-149 50,-28 93,-39 158,-48l10 76c-59,56 -105,47 -90,168 42,31 93,54 129,-5 42,-69 -14,-116 55,-134 25,28 8,65 29,119l64 20c-27,-47 -23,-47 -28,-117 -3,-47 -8,-94 -11,-142 20,-22 34,-13 49,-43 -33,-29 -54,-14 -124,-2 -130,23 -115,14 -233,56 -85,30 -82,11 -99,53z"/>
   <path class="fil11" d="M32601 87111c36,-23 18,3 32,-34 -64,-24 -184,-20 -251,-49 -47,-20 -62,-144 -177,-124 -23,33 -26,74 -10,110 40,91 -20,155 73,184 -14,-33 -24,-121 -22,-170l137 40c-50,-7 -32,-20 -99,-16 2,28 11,50 11,52l0 14c-5,42 -28,124 127,142 -9,-30 3,-11 -27,-30 -8,-5 -23,-8 -36,-16 -56,-35 -31,-65 -31,-67 46,-12 47,-8 81,10l27 17c-39,-92 -112,-49 -104,-82l65 17c48,-38 3,-23 33,-31 10,-3 39,4 52,6 33,6 69,1 78,27 -40,11 -38,-19 -98,0 -3,7 -6,7 -8,31 -4,39 14,87 40,107 29,23 6,12 47,20 -25,-70 -61,-33 -49,-116 33,-12 37,-6 72,3 15,74 -4,100 55,118l-18 -163z"/>
   <path class="fil8" d="M31895 84488c34,54 49,148 143,91 -71,-11 -75,-66 -104,-131 -10,-23 -40,-72 -36,-90 13,-56 52,-6 71,8 30,-62 22,-132 118,-134 46,14 71,158 -42,167 -45,4 -22,-19 -54,35 34,38 66,60 128,74 64,15 117,3 150,-32 -32,-15 -114,37 -195,-43l13 -10c172,-132 66,-270 -57,-208 -30,15 -44,33 -66,53 -34,31 -203,88 -190,145 0,0 1,42 66,-31 29,24 43,62 56,105z"/>
   <path class="fil12" d="M31168 86019c-9,-60 14,-153 -60,-144 -3,46 7,30 13,71 4,28 -1,62 3,84 12,58 78,38 136,45l-3 68c-69,24 -143,-18 -141,66 23,-1 157,-22 180,-28l12 -115c68,-1 78,-14 84,49 5,61 -11,78 41,88 7,-14 3,-1 5,-22l-12 -147 -125 -20c-16,-167 170,-31 133,-133 -15,-9 -8,-5 -28,-5 -179,2 -140,39 -153,146l-85 -3z"/>
   <path class="fil8" d="M33640 84455c223,-34 155,155 49,111 -70,-29 0,-70 -103,-75 -4,106 -5,250 91,266 -39,-61 -54,-99 -47,-193 154,130 71,-6 155,96 -39,65 -99,77 -44,175 10,-67 108,-177 154,-216 29,11 36,24 67,12 -15,-40 -73,-90 -110,-99 -32,72 15,8 -2,57 -9,26 -26,33 -61,25 15,-51 65,-102 -2,-168 -55,-54 -113,-63 -149,10z"/>
   <path class="fil12" d="M34098 86021c-4,-75 11,-138 -53,-152 -23,31 1,38 8,76 6,35 0,66 4,105 43,24 81,12 134,27l-3 64c-65,22 -145,-16 -141,68 262,-32 159,-39 186,-123 8,-26 50,-30 72,-18 52,31 -27,131 69,131 -8,-73 -3,-130 -26,-169l-115 -17c-24,-173 137,-11 134,-146 -185,41 -157,-32 -181,154l-89 -1z"/>
   <path class="fil13" d="M31817 86808c30,71 -12,126 105,200 59,37 20,25 47,57 19,23 21,16 37,24l-17 -161c18,16 4,5 20,22l23 23c40,-29 62,-13 99,-3 7,41 11,37 -2,70 -82,5 -7,-22 -104,-32 26,86 51,105 97,143 32,27 29,31 84,46 -15,-36 8,-7 -30,-36 -82,-64 -53,-72 -81,-92 8,9 34,17 80,3 34,-121 -53,-127 -145,-163 -19,-7 -35,-20 -54,-30l-159 -69z"/>
   <path class="fil0" d="M32632 86597c27,117 257,97 216,-66 -35,-137 -253,-98 -216,66z"/>
   <path class="fil14" d="M33908 84711c108,-6 190,79 112,118 -46,23 -90,-1 -104,-29 -12,-24 -6,-55 -35,-62 -64,-14 -9,-5 -35,7 -22,80 -41,248 55,264 -28,-61 -42,-106 -23,-184 53,27 9,24 93,60 68,29 26,66 96,30l-26 -44c18,-21 32,-33 36,-63 11,-77 -95,-213 -170,-97z"/>
   <path class="fil14" d="M32741 87108l72 3 -3 81c-17,9 -31,13 -58,13 -19,-33 -20,-52 -11,-97zm147 25c28,-58 115,-98 96,21 -40,74 -110,-33 -91,48 7,32 73,83 153,85l-18 -12c-34,-18 -60,-16 -87,-71 59,-18 101,-42 72,-120 -47,-55 -86,-14 -145,-9 -58,5 -121,-1 -180,4 28,104 17,157 127,150 19,40 12,35 52,50 -21,-42 -22,-116 -25,-175 41,17 13,5 47,28z"/>
   <path class="fil15" d="M31173 85510c-60,16 -66,60 -38,112 71,132 259,49 240,-60 -6,-36 -16,-37 -57,-33 64,179 -183,168 -145,5 56,25 14,36 68,60 34,-22 34,-24 34,-72 -124,-63 -4,-79 -98,-100 -13,26 -5,50 -4,88z"/>
   <path class="fil6" d="M33127 84328c45,53 107,38 158,3 -2,-50 -20,-76 -74,-75 -52,1 -80,22 -84,72z"/>
   <path class="fil6" d="M31345 85204c41,-5 52,-15 62,-57 11,-43 5,-69 -12,-96 -91,-24 -94,109 -51,153z"/>
   <path class="fil16" d="M32752 87205c27,0 40,-4 58,-13l3 -81 -72 -3c-9,44 -8,63 11,97z"/>
  </g>
 </g>
</svg>
